<?xml version="1.0" standalone="no"?>
<!DOCTYPE svg PUBLIC "-//W3C//DTD SVG 20010904//EN"
 "http://www.w3.org/TR/2001/REC-SVG-20010904/DTD/svg10.dtd">
<svg version="1.0" xmlns="http://www.w3.org/2000/svg"
 width="1038.000000pt" height="1280.000000pt" viewBox="0 0 1038.000000 1280.000000"
 preserveAspectRatio="xMidYMid meet">
<metadata>
Created by potrace 1.15, written by Peter Selinger 2001-2017
</metadata>
<g transform="translate(0.000000,1280.000000) scale(0.100000,-0.100000)"
fill="#000000" stroke="none">
<path d="M4980 12134 c-229 -20 -291 -26 -400 -40 -191 -24 -474 -79 -690
-135 -389 -101 -549 -181 -704 -351 -131 -144 -177 -287 -196 -608 -21 -383
-78 -617 -170 -705 -23 -22 -143 -80 -212 -102 -13 -4 -30 20 -77 116 -44 88
-66 121 -79 121 -27 0 -63 71 -61 119 2 22 -3 47 -11 56 -24 29 -107 65 -150
65 -44 0 -104 -26 -132 -57 -28 -31 -58 -105 -58 -146 0 -32 7 -45 51 -87 47
-46 51 -53 46 -85 -5 -30 3 -50 54 -139 32 -57 59 -112 59 -122 0 -15 -25 -32
-102 -69 -115 -56 -123 -68 -92 -133 20 -43 42 -21 -173 -169 -243 -168 -362
-291 -453 -473 -121 -240 -144 -472 -75 -747 27 -105 88 -263 107 -275 48 -30
307 48 696 209 139 57 606 282 832 400 3 2 24 -32 47 -75 24 -42 59 -104 78
-137 l34 -61 -117 -84 c-419 -301 -893 -755 -1164 -1116 -386 -513 -663 -1178
-759 -1820 -71 -482 -64 -926 22 -1369 77 -396 213 -790 389 -1122 249 -470
494 -787 903 -1170 l128 -120 -166 -332 c-188 -376 -183 -355 -103 -427 73
-66 152 -89 195 -59 12 8 126 130 253 270 128 140 234 255 235 255 2 0 65 -36
141 -81 255 -149 410 -221 727 -333 214 -77 354 -116 532 -150 636 -123 1191
-112 1830 35 156 36 265 71 485 155 210 80 281 111 462 207 82 42 151 77 156
77 4 0 124 -128 266 -285 142 -156 267 -287 278 -291 40 -12 87 7 142 57 30
28 58 59 61 70 5 15 -42 121 -164 369 -94 192 -171 351 -171 353 0 2 44 40 98
84 131 108 349 319 481 467 291 326 563 755 716 1126 152 368 215 590 269 950
38 251 46 361 46 637 0 272 -13 433 -56 681 -125 731 -478 1464 -976 2027
-201 228 -643 639 -909 848 l-33 26 23 48 c38 79 122 213 133 213 5 0 116 -58
247 -129 586 -319 788 -419 1014 -501 76 -29 122 -40 150 -38 l40 3 54 145
c68 182 96 322 96 485 -1 259 -94 495 -267 674 -76 79 -228 201 -329 266 -42
26 -77 53 -77 59 1 6 7 22 15 36 31 53 22 65 -90 131 -58 34 -105 66 -105 72
0 5 29 58 65 118 50 84 65 117 65 147 0 45 36 92 69 92 30 0 43 33 35 88 -23
163 -139 228 -281 155 -64 -32 -66 -35 -52 -66 16 -36 -16 -96 -60 -111 -28
-9 -43 -28 -100 -126 -37 -63 -72 -115 -77 -115 -5 0 -62 27 -126 60 -114 58
-118 61 -139 110 -30 70 -36 93 -61 230 -17 97 -22 182 -28 440 -6 263 -10
330 -24 375 -63 197 -213 357 -441 469 -313 154 -873 293 -1390 345 -145 15
-633 28 -725 20z m720 -319 c407 -43 881 -150 1172 -266 250 -99 355 -189 413
-354 24 -69 25 -76 25 -391 0 -361 4 -391 75 -508 25 -42 30 -56 17 -51 -197
86 -301 108 -497 108 -171 -1 -266 -18 -400 -76 -102 -43 -163 -82 -250 -159
-95 -85 -289 -310 -293 -339 -5 -44 112 -155 363 -345 151 -114 416 -283 762
-484 90 -52 163 -99 163 -104 0 -5 -34 -65 -76 -133 -53 -87 -79 -121 -87
-115 -7 6 -75 43 -152 85 -173 93 -350 165 -613 252 -112 37 -202 68 -200 69
2 2 53 0 113 -4 214 -14 344 4 328 46 -5 14 -17 16 -72 11 -108 -9 -706 12
-815 29 -107 16 -116 19 -116 37 0 20 -50 121 -71 143 -13 14 -17 24 -10 29
17 10 13 40 -8 67 -20 24 -20 26 1 155 16 105 24 132 37 136 10 2 78 -8 152
-23 l134 -28 32 24 c49 37 93 138 93 213 0 83 -19 126 -62 139 -18 6 -183 43
-366 82 l-334 72 -30 -28 c-72 -68 -108 -222 -71 -305 l20 -45 173 -36 c95
-21 175 -39 178 -42 2 -3 -4 -64 -14 -135 l-18 -130 -70 0 c-39 0 -80 -1 -91
0 -65 0 -80 -2 -102 -17 -14 -8 -39 -38 -55 -65 -17 -27 -34 -49 -39 -49 -8 0
-103 -110 -118 -137 -7 -14 -17 -14 -89 1 -96 19 -140 43 -167 88 -18 30 -20
49 -18 229 1 156 5 204 18 235 22 53 30 159 15 213 -7 26 -26 59 -45 78 -58
58 -110 38 -155 -60 l-27 -60 -29 39 c-63 85 -175 212 -242 276 -91 86 -211
145 -377 188 -112 29 -129 31 -260 27 -124 -3 -304 -31 -407 -63 -13 -4 -9 9
17 52 70 116 84 182 95 449 16 398 32 469 127 575 47 52 73 69 167 115 273
130 749 241 1226 285 69 6 168 15 220 20 130 12 533 3 710 -15z m-1221 -2146
c6 -19 11 -109 11 -218 0 -161 3 -192 19 -228 25 -54 87 -99 159 -114 78 -17
87 -29 21 -29 -122 0 -445 -74 -699 -159 -150 -51 -417 -165 -529 -227 -35
-19 -65 -33 -68 -30 -2 2 -36 59 -74 127 -66 117 -69 124 -52 139 10 9 99 63
198 120 387 222 837 512 954 617 20 18 39 33 43 33 3 0 11 -14 17 -31z"/>
</g>
</svg>
